<?xml version="1.0" encoding="iso-8859-1"?>
<!-- Generator: Adobe Illustrator 19.0.0, SVG Export Plug-In . SVG Version: 6.00 Build 0)  -->
<svg version="1.1" id="Capa_1" xmlns="http://www.w3.org/2000/svg" xmlns:xlink="http://www.w3.org/1999/xlink" x="0px" y="0px"
	 viewBox="0 0 512 512" style="enable-background:new 0 0 512 512;" xml:space="preserve">
<g>
	<g>
		<path d="M315.793,19.932h-59.796v37.372h41.109v70.384c0,61.82-50.297,112.117-112.117,112.117S72.873,189.509,72.873,127.689
			V57.304h39.864V19.932h-58.55c-10.321,0-18.686,8.365-18.686,18.686v89.071c0,82.431,67.058,149.489,149.489,149.489
			s149.489-67.058,149.489-149.489V38.618C334.479,28.297,326.114,19.932,315.793,19.932z"/>
	</g>
</g>
<g>
	<g>
		<path d="M388.668,292.749v88.448c0,51.518-41.913,93.431-93.431,93.431c-51.518,0-93.431-41.913-93.431-93.431V259.114h-37.372
			v122.083c0,72.122,58.674,130.803,130.803,130.803c72.122,0,130.803-58.681,130.803-130.803v-88.448H388.668z"/>
	</g>
</g>
<g>
	<g>
		<path d="M407.361,171.912c-38.132,0-69.145,31.013-69.145,69.139c0,38.12,31.013,69.139,69.139,69.139
			c38.126,0,69.139-31.019,69.145-69.139C476.499,202.925,445.481,171.912,407.361,171.912z M407.355,272.818
			c-17.521,0-31.773-14.251-31.773-31.766s14.251-31.766,31.773-31.766c17.515,0,31.766,14.251,31.766,31.766
			S424.87,272.818,407.355,272.818z"/>
	</g>
</g>
<g>
	<g>
		<path d="M112.114,0c-10.321,0-18.686,8.365-18.686,18.686V58.55c0,10.321,8.365,18.686,18.686,18.686
			c10.321,0,18.686-8.365,18.686-18.686V18.686C130.8,8.365,122.435,0,112.114,0z"/>
	</g>
</g>
<g>
	<g>
		<path d="M256.62,0c-10.321,0-18.686,8.365-18.686,18.686V58.55c0,10.321,8.365,18.686,18.686,18.686s18.686-8.365,18.686-18.686
			V18.686C275.306,8.365,266.941,0,256.62,0z"/>
	</g>
</g>
<g>
</g>
<g>
</g>
<g>
</g>
<g>
</g>
<g>
</g>
<g>
</g>
<g>
</g>
<g>
</g>
<g>
</g>
<g>
</g>
<g>
</g>
<g>
</g>
<g>
</g>
<g>
</g>
<g>
</g>
</svg>
